<svg xmlns="http://www.w3.org/2000/svg" viewBox="0 0 24 24" stroke-width="1.5" width="24" height="24"><defs><style>.cls-637647fac3a86d32eae6f284-1{fill:none;stroke:currentColor;stroke-miterlimit:10;}</style></defs><path class="cls-637647fac3a86d32eae6f284-1" d="M3.41,22.5H20.59V5.32L16.77,1.5H3.41Z"></path><path class="cls-637647fac3a86d32eae6f284-1" d="M12,1.5h0a1.91,1.91,0,0,1,1.91,1.91V7.23a0,0,0,0,1,0,0H10.09a0,0,0,0,1,0,0V3.41A1.91,1.91,0,0,1,12,1.5Z"></path><path class="cls-637647fac3a86d32eae6f284-1" d="M12,11.05h0Z"></path><path class="cls-637647fac3a86d32eae6f284-1" d="M13.91,13h0Z"></path><path class="cls-637647fac3a86d32eae6f284-1" d="M12,14.86h0Z"></path><path class="cls-637647fac3a86d32eae6f284-1" d="M13.91,16.77h0Z"></path><path class="cls-637647fac3a86d32eae6f284-1" d="M13.91,20.59h0Z"></path><path class="cls-637647fac3a86d32eae6f284-1" d="M12,18.68h0Z"></path></svg>